<?xml version="1.0"?>
<svg width="500" height="500" xmlns="http://www.w3.org/2000/svg" xmlns:svg="http://www.w3.org/2000/svg">
 <g class="layer">
  <title>Layer 1</title>
  <g id="freepik--Device--inject-253">
   <g id="freepik--device--inject-253">
    <path d="m281.2,381.64l34.94,-20.2c3.6,-2.08 5.4,-4.8 5.4,-7.53s0,-4.86 0,-4.86l-36.24,-20.44a7.64,7.64 0 0 1 -3.48,-6l0,-43.09l-61,35.26l0,43.07a7.7,7.7 0 0 0 3.48,6l30.84,17.76c7.18,4.19 18.86,4.19 26.06,0.03z" fill="#B441C8" id="svg_4"/>
    <g id="svg_5" opacity="0.6">
     <path d="m281.2,381.64l34.94,-20.2c3.6,-2.08 5.4,-4.8 5.4,-7.53s0,-4.86 0,-4.86l-36.24,-20.44a7.64,7.64 0 0 1 -3.48,-6l0,-43.09l-61,35.26l0,43.07a7.7,7.7 0 0 0 3.48,6l30.84,17.76c7.18,4.19 18.86,4.19 26.06,0.03z" id="svg_6"/>
    </g>
    <path d="m235.45,365.48l0,4.84l-11.18,-6.45a7.67,7.67 0 0 1 -3.47,-6l0,-43.09l11.62,-6.71c0.24,2.95 0.5,6 0.75,9l-8.17,4.7l0,33.65a7.63,7.63 0 0 0 3.48,6l6.97,4.06z" id="svg_7" opacity="0.3"/>
    <path d="m225,355.43a7.68,7.68 0 0 0 3.48,6l26.62,15.34c7.2,4.15 18.88,4.16 26.09,0l35,-20.2c7.21,-4.16 7.21,-10.9 0,-15.06l-26.64,-15.34a7.69,7.69 0 0 1 -3.47,-6l0,-33.66l-61,35.26l-0.08,33.66z" fill="#B441C8" id="svg_8"/>
    <path d="m225,355.43a7.68,7.68 0 0 0 3.48,6l26.62,15.34c7.2,4.15 18.88,4.16 26.09,0l35,-20.2c7.21,-4.16 7.21,-10.9 0,-15.06l-26.64,-15.34a7.69,7.69 0 0 1 -3.47,-6l0,-33.66l-61,35.26l-0.08,33.66z" id="svg_9" opacity="0.3"/>
    <path d="m296.6,330.28l0,0l-7.09,-4.09a7.69,7.69 0 0 1 -3.47,-6l0,-33.68l-61,35.26l0,33.66a7.68,7.68 0 0 0 3.48,6l7,4l61.08,-35.15z" id="svg_10" opacity="0.5"/>
    <path d="m321.55,349.06l0,4.86c0,2.73 -1.81,5.44 -5.4,7.53l-35,20.19a26.23,26.23 0 0 1 -12.45,3.09l0,-4.84a26.23,26.23 0 0 0 12.45,-3.09l35,-20.21c3.59,-2.07 5.4,-4.8 5.4,-7.53z" fill="#B441C8" id="svg_11"/>
    <path d="m321.55,349.06l0,4.86c0,2.73 -1.81,5.44 -5.4,7.53l-35,20.19a26.23,26.23 0 0 1 -12.45,3.09l0,-4.84a26.23,26.23 0 0 0 12.45,-3.09l35,-20.21c3.59,-2.07 5.4,-4.8 5.4,-7.53z" id="svg_12" opacity="0.5"/>
    <path d="m127,397.26a9.35,9.35 0 0 0 8.43,-0.15l236,-136.25a9.62,9.62 0 0 0 4.35,-7.53l0,-190.92a9.32,9.32 0 0 0 -4.06,-7.41a9.3,9.3 0 0 0 -8.42,0.16l-236,136.29a9.58,9.58 0 0 0 -4.3,7.55l0,190.89a9.32,9.32 0 0 0 4,7.37z" fill="#B441C8" id="svg_13"/>
    <path d="m135.46,397.1l236,-136.25a9.59,9.59 0 0 0 4.35,-7.53l0,-190.91c0,-2.77 -1.95,-3.9 -4.35,-2.51l-236,136.25a9.61,9.61 0 0 0 -4.35,7.53l0,190.91c0,2.77 1.95,3.9 4.35,2.51z" fill="#B441C8" id="svg_14"/>
    <path d="m135.46,397.1l236,-136.25a9.59,9.59 0 0 0 4.35,-7.53l0,-190.91c0,-2.77 -1.95,-3.9 -4.35,-2.51l-236,136.25a9.61,9.61 0 0 0 -4.35,7.53l0,190.91c0,2.77 1.95,3.9 4.35,2.51z" id="svg_15" opacity="0.5"/>
    <path d="m134.82,402.06a9.34,9.34 0 0 1 -7.82,-0.16a9.32,9.32 0 0 1 -4,-7.39l0,-17.38l8.15,4.72l0,17.38c-0.05,2.53 1.56,3.68 3.67,2.83z" fill="#B441C8" id="svg_16"/>
    <path d="m134.82,402.06a9.34,9.34 0 0 1 -7.82,-0.16a9.32,9.32 0 0 1 -4,-7.39l0,-17.38l8.15,4.72l0,17.38c-0.05,2.53 1.56,3.68 3.67,2.83z" id="svg_17" opacity="0.5"/>
    <path d="m131.1,381.85l0,17.38c0,2.77 2,3.89 4.35,2.51l236,-136.25a9.62,9.62 0 0 0 4.35,-7.49l0,-17.46l-244.7,141.31z" fill="#B441C8" id="svg_18"/>
    <path d="m131.11,381.81l0,17.42c0,2.77 2,3.89 4.35,2.51l236,-136.25a9.62,9.62 0 0 0 4.34,-7.49l0,-17.46l-244.69,141.27z" id="svg_19" opacity="0.3"/>
    <path d="m139.26,360l0,-153.61a5.75,5.75 0 0 1 2.6,-4.52l223.14,-128.87c1.44,-0.83 2.61,-0.16 2.61,1.5l0,153.69a5.76,5.76 0 0 1 -2.61,4.52l-223.13,128.84c-1.44,0.83 -2.61,0.15 -2.61,-1.55z" fill="#B441C8" id="svg_20"/>
    <path d="m139.26,360l0,-153.61a5.75,5.75 0 0 1 2.6,-4.52l223.14,-128.87c1.44,-0.83 2.61,-0.16 2.61,1.5l0,153.69a5.76,5.76 0 0 1 -2.61,4.52l-223.13,128.84c-1.44,0.83 -2.61,0.15 -2.61,-1.55z" fill="#263238" id="svg_21"/>
    <path d="m253.45,316.73a9,9 0 0 0 -4.08,7.06c0,2.6 1.83,3.66 4.08,2.36a9,9 0 0 0 4.08,-7.07c0,-2.6 -1.83,-3.65 -4.08,-2.35z" fill="#B441C8" id="svg_22"/>
    <path d="m132.39,199.38a9.25,9.25 0 0 0 -1.29,4.29l0,178.18l-8.1,-4.72l0,-178.13a8.9,8.9 0 0 1 1.28,-4.3l8.11,4.68z" id="svg_23" opacity="0.7"/>
    <path d="m375.76,61.69c-0.31,-2.24 -2.12,-3 -4.31,-1.79l-236,136.25a8.94,8.94 0 0 0 -3.07,3.23l-8.16,-4.71a9,9 0 0 1 3.08,-3.23l236,-136.24a9.32,9.32 0 0 1 8.43,-0.16a9.37,9.37 0 0 1 4.03,6.65z" id="svg_24" opacity="0.3"/>
   </g>
  </g>
  <g id="freepik--Window--inject-253">
   <g id="freepik--window--inject-253">
    <g id="svg_2">
     <g id="svg_3">
      <path d="m388.49,85.19a2.16,2.16 0 0 0 -2.22,0.17l-222.68,128.64a6.71,6.71 0 0 0 -3,5.27l0,152.67a3,3 0 0 0 1.29,2.65c0.49,0.27 3.11,1.79 3.89,2.21a1.75,1.75 0 0 0 1.76,-0.1l222.63,-128.64a6.71,6.71 0 0 0 3,-5.27l0,-153.46a2.1,2.1 0 0 0 -0.94,-2c-0.5,-0.33 -3.17,-1.81 -3.73,-2.14z" fill="#B441C8" id="svg_25"/>
      <path d="m167.48,216.16l222.69,-128.59c1.68,-1 3,-0.18 3,1.76l0,153.46a6.71,6.71 0 0 1 -3,5.27l-222.69,128.64c-1.68,1 -3,-0.61 -3,-2.55l0,-152.72a6.73,6.73 0 0 1 3,-5.27z" fill="#fafafa" id="svg_26"/>
      <path d="m391.53,88.15l0,0c0.59,0 0.68,0.74 0.68,1.18l0,153.46a5.68,5.68 0 0 1 -2.55,4.4l-222.66,128.64a1,1 0 0 1 -0.5,0.16c-0.56,0 -1,-0.86 -1,-1.84l0,-152.72a5.74,5.74 0 0 1 2.5,-4.43l222.67,-128.57a1.77,1.77 0 0 1 0.86,-0.28m0,-1a2.8,2.8 0 0 0 -1.36,0.42l-222.69,128.59a6.73,6.73 0 0 0 -3,5.27l0,152.72c0,1.54 0.86,2.84 2,2.84a2,2 0 0 0 1,-0.29l222.68,-128.64a6.71,6.71 0 0 0 3,-5.27l0,-153.46c0,-1.38 -0.68,-2.18 -1.68,-2.18l0.05,0z" fill="#e0e0e0" id="svg_27"/>
      <path d="m161.82,374.59c0.33,0.17 2.7,1.52 3.74,2.12a3.11,3.11 0 0 1 -1.12,-2.56l0,-142.75l-3.9,-2.28l0,142.82a3,3 0 0 0 1.28,2.65z" fill="#f0f0f0" id="svg_28"/>
      <path d="m393.21,89.3c0,-1.92 -1.37,-2.7 -3,-1.73l-222.73,128.59a6.73,6.73 0 0 0 -3,5.27l0,10l228.73,-132.13l0,-10z" fill="#B441C8" id="svg_29"/>
      <g id="svg_30" opacity="0.4">
       <path d="m390.17,87.57l-222.69,128.58a6.25,6.25 0 0 0 -2.14,2.27l-3.87,-2.25a6,6 0 0 1 2.12,-2.17l222.68,-128.64a2.16,2.16 0 0 1 2.22,-0.18c0.54,0.34 3.07,1.77 3.72,2.12a2.2,2.2 0 0 0 -2.04,0.27z" fill="#fff" id="svg_31"/>
      </g>
      <path d="m160.54,229.13l0,-9.91a6.25,6.25 0 0 1 0.93,-3.05l3.88,2.24a6.08,6.08 0 0 0 -0.91,3l0,10l-3.9,-2.28z" id="svg_32" opacity="0.15"/>
     </g>
    </g>
    <path d="m346.25,204.42l-133.37,77a4.91,4.91 0 0 0 -2.23,3.85l0,38.24a4.91,4.91 0 0 0 2.23,3.85l3.89,2.24a4.94,4.94 0 0 0 4.46,0l133.35,-77a4.93,4.93 0 0 0 2.23,-3.86l0,-38.25a4.91,4.91 0 0 0 -2.23,-3.85l-3.9,-2.24a4.91,4.91 0 0 0 -4.43,0.02z" fill="#B441C8" id="svg_33"/>
    <path d="m356.81,210.15c-0.16,-1.15 -1.09,-1.57 -2.21,-0.92l-133.37,77a4.49,4.49 0 0 0 -1.57,1.66l-8.35,-4.82a4.57,4.57 0 0 1 1.56,-1.64l133.38,-77a4.91,4.91 0 0 1 4.45,0l3.9,2.24a5,5 0 0 1 2.21,3.48z" fill="#fff" id="svg_34" opacity="0.5"/>
    <path d="m220.85,329.79a5,5 0 0 1 -4.07,-0.18l-3.9,-2.24a4.93,4.93 0 0 1 -2.23,-3.85l0,-38.24a4.63,4.63 0 0 1 0.66,-2.21l8.35,4.82a4.48,4.48 0 0 0 -0.66,2.19l0,38.25c0,1.27 0.8,1.86 1.85,1.46z" fill="#263238" id="svg_35"/>
    <path d="m221.23,286.23l133.37,-77c1.23,-0.71 2.23,-0.14 2.23,1.28l0,38.25a4.93,4.93 0 0 1 -2.23,3.86l-133.35,77c-1.23,0.71 -2.23,0.13 -2.23,-1.29l0,-38.24a4.93,4.93 0 0 1 2.21,-3.86z" fill="#B441C8" id="svg_36"/>
    <path d="m310.89,224.84l-98,56.59a4.57,4.57 0 0 0 -1.56,1.64l8.35,4.82a4.49,4.49 0 0 1 1.57,-1.66l98,-56.58l-8.36,-4.81z" fill="#455a64" id="svg_37"/>
    <path d="m319.23,229.65l-98,56.58a4.93,4.93 0 0 0 -2.23,3.86l0,38.23c0,1.42 1,2 2.23,1.29l98,-56.58l0,-43.38z" fill="#37474f" id="svg_38"/>
    <path d="m243.83,281.57l50.57,-29.19c2.09,-1.21 3.79,-0.35 3.79,1.92a8.13,8.13 0 0 1 -3.8,6.3l-50.56,29.2c-2.09,1.21 -3.8,0.35 -3.8,-1.92a8.16,8.16 0 0 1 3.8,-6.31z" fill="#B441C8" id="svg_39"/>
    <path d="m254.19,291.24a0.1,0.1 0 0 1 0.15,0a0.37,0.37 0 0 1 0.06,0.23l0,5.69a9.54,9.54 0 0 1 -0.14,1.64a6.35,6.35 0 0 1 -0.42,1.44a5.11,5.11 0 0 1 -0.7,1.18a3.67,3.67 0 0 1 -1,0.83a1.85,1.85 0 0 1 -1,0.3a1,1 0 0 1 -0.7,-0.37a2.25,2.25 0 0 1 -0.42,-1a6.91,6.91 0 0 1 -0.13,-1.47l0,-5.7a0.72,0.72 0 0 1 0.06,-0.29a0.36,0.36 0 0 1 0.15,-0.2l0.63,-0.37a0.11,0.11 0 0 1 0.15,0a0.35,0.35 0 0 1 0.06,0.23l0,5.62a3.79,3.79 0 0 0 0.09,0.92a1,1 0 0 0 0.24,0.52a0.45,0.45 0 0 0 0.37,0.16a1,1 0 0 0 0.48,-0.16a2.16,2.16 0 0 0 0.48,-0.39a2.37,2.37 0 0 0 0.38,-0.6a3.77,3.77 0 0 0 0.25,-0.8a5.28,5.28 0 0 0 0.08,-1l0,-5.63a0.73,0.73 0 0 1 0.07,-0.29a0.36,0.36 0 0 1 0.15,-0.2l0.66,-0.29z" fill="#fafafa" id="svg_40"/>
    <path d="m258.11,296.62a0.36,0.36 0 0 0 -0.05,-0.21a0.22,0.22 0 0 0 -0.19,-0.07a1.37,1.37 0 0 0 -0.37,0l-0.58,0.11a1.18,1.18 0 0 1 -0.57,0a0.69,0.69 0 0 1 -0.36,-0.27a1.43,1.43 0 0 1 -0.19,-0.53a4.52,4.52 0 0 1 0,-1.62a4.49,4.49 0 0 1 0.32,-0.89a4.32,4.32 0 0 1 0.5,-0.8a2.51,2.51 0 0 1 0.68,-0.59a1.73,1.73 0 0 1 0.69,-0.24a0.84,0.84 0 0 1 0.51,0.11a0.83,0.83 0 0 1 0.33,0.38a1.59,1.59 0 0 1 0.13,0.59a0.49,0.49 0 0 1 -0.06,0.29a0.36,0.36 0 0 1 -0.15,0.2l-0.6,0.35a0.18,0.18 0 0 1 -0.18,0l-0.13,-0.1a0.33,0.33 0 0 0 -0.18,-0.07a0.82,0.82 0 0 0 -0.36,0.13a1.54,1.54 0 0 0 -0.41,0.36a0.87,0.87 0 0 0 -0.18,0.55a0.63,0.63 0 0 0 0,0.23a0.23,0.23 0 0 0 0.17,0.1a1,1 0 0 0 0.33,0l0.56,-0.1c0.47,-0.09 0.79,0 1,0.26a2.1,2.1 0 0 1 0.29,1.23a3.51,3.51 0 0 1 -0.12,0.88a4.27,4.27 0 0 1 -0.34,0.9a3.8,3.8 0 0 1 -0.55,0.82a2.83,2.83 0 0 1 -0.73,0.61a1.63,1.63 0 0 1 -0.73,0.25a0.9,0.9 0 0 1 -0.53,-0.15a0.92,0.92 0 0 1 -0.34,-0.43a1.5,1.5 0 0 1 -0.12,-0.6a0.54,0.54 0 0 1 0.06,-0.3a0.36,0.36 0 0 1 0.15,-0.2l0.6,-0.35c0.08,0 0.14,-0.05 0.18,0l0.13,0.14a0.3,0.3 0 0 0 0.21,0.1a0.64,0.64 0 0 0 0.39,-0.13a1.87,1.87 0 0 0 0.48,-0.39a1.24,1.24 0 0 0 0.17,-0.27a0.6,0.6 0 0 0 0.14,-0.28z" fill="#fafafa" id="svg_41"/>
    <path d="m260.15,293.91a8.93,8.93 0 0 1 0.13,-1.55a7.46,7.46 0 0 1 0.39,-1.41a4.8,4.8 0 0 1 0.6,-1.15a2.57,2.57 0 0 1 0.8,-0.75a1.09,1.09 0 0 1 0.79,-0.17a1,1 0 0 1 0.6,0.41a2.5,2.5 0 0 1 0.39,0.9a5.58,5.58 0 0 1 0.14,1.28l0,0.62a0.6,0.6 0 0 1 -0.07,0.3a0.36,0.36 0 0 1 -0.15,0.2l-2.6,1.51a1.56,1.56 0 0 0 0.07,0.52a0.65,0.65 0 0 0 0.2,0.29a0.42,0.42 0 0 0 0.29,0.09a0.82,0.82 0 0 0 0.34,-0.12a1.45,1.45 0 0 0 0.4,-0.32a1.83,1.83 0 0 0 0.26,-0.38a2.65,2.65 0 0 1 0.14,-0.23a0.64,0.64 0 0 1 0.15,-0.13l0.62,-0.36a0.12,0.12 0 0 1 0.15,0a0.28,0.28 0 0 1 0.06,0.23a1.93,1.93 0 0 1 -0.12,0.57a4.34,4.34 0 0 1 -0.34,0.8a4.59,4.59 0 0 1 -0.56,0.82a3,3 0 0 1 -0.76,0.65a1.21,1.21 0 0 1 -0.8,0.19a1,1 0 0 1 -0.6,-0.42a2.65,2.65 0 0 1 -0.39,-1a6.8,6.8 0 0 1 -0.13,-1.39zm1.92,-3.19a1.17,1.17 0 0 0 -0.39,0.34a1.92,1.92 0 0 0 -0.27,0.46a3.39,3.39 0 0 0 -0.17,0.51a3.27,3.27 0 0 0 -0.07,0.48l1.76,-1a2.9,2.9 0 0 0 -0.06,-0.41a0.66,0.66 0 0 0 -0.14,-0.33a0.38,0.38 0 0 0 -0.26,-0.16a0.6,0.6 0 0 0 -0.4,0.11z" fill="#fafafa" id="svg_42"/>
    <path d="m267.13,287.93a1.61,1.61 0 0 0 -0.68,0.76a3.44,3.44 0 0 0 -0.21,1.32l0,3.61a0.73,0.73 0 0 1 -0.06,0.3a0.36,0.36 0 0 1 -0.15,0.2l-0.59,0.34a0.1,0.1 0 0 1 -0.15,0a0.37,0.37 0 0 1 -0.06,-0.23l0,-6.47a0.8,0.8 0 0 1 0.06,-0.3a0.41,0.41 0 0 1 0.15,-0.2l0.59,-0.34a0.11,0.11 0 0 1 0.15,0a0.32,0.32 0 0 1 0.06,0.22l0,0.32a4.12,4.12 0 0 1 0.44,-0.76a1.82,1.82 0 0 1 0.6,-0.53l0.36,-0.21a0.1,0.1 0 0 1 0.14,0a0.37,0.37 0 0 1 0.07,0.23l0,0.91a0.73,0.73 0 0 1 -0.07,0.3a0.41,0.41 0 0 1 -0.14,0.2l-0.51,0.33z" fill="#fafafa" id="svg_43"/>
    <path d="m274.59,287.45a0.1,0.1 0 0 1 0.15,0a0.37,0.37 0 0 1 0.06,0.23l0,1a0.8,0.8 0 0 1 -0.06,0.3a0.52,0.52 0 0 1 -0.15,0.19l-3.42,2a0.11,0.11 0 0 1 -0.15,0a0.34,0.34 0 0 1 -0.06,-0.22l0,-9a0.8,0.8 0 0 1 0.06,-0.3a0.38,0.38 0 0 1 0.15,-0.19l0.63,-0.37a0.11,0.11 0 0 1 0.15,0a0.34,0.34 0 0 1 0.06,0.22l0,7.61l2.58,-1.47z" fill="#fafafa" id="svg_44"/>
    <path d="m277.66,280.05a1.2,1.2 0 0 1 0.77,-0.21a0.92,0.92 0 0 1 0.61,0.3a1.92,1.92 0 0 1 0.4,0.74a4.28,4.28 0 0 1 0.18,1.09c0,0.08 0,0.19 0,0.32l0,0.77c0,0.12 0,0.23 0,0.32a7,7 0 0 1 -0.18,1.29a6.26,6.26 0 0 1 -0.4,1.2a4.46,4.46 0 0 1 -0.61,1a2.76,2.76 0 0 1 -0.77,0.69a1.31,1.31 0 0 1 -0.78,0.21a0.91,0.91 0 0 1 -0.6,-0.3a1.7,1.7 0 0 1 -0.4,-0.73a4.28,4.28 0 0 1 -0.18,-1.09c0,-0.08 0,-0.18 0,-0.31l0,-0.77c0,-0.13 0,-0.24 0,-0.32a6.35,6.35 0 0 1 0.17,-1.3a6.62,6.62 0 0 1 0.41,-1.21a4.83,4.83 0 0 1 0.6,-1a2.66,2.66 0 0 1 0.78,-0.69zm0.94,2.58a2,2 0 0 0 -0.11,-0.65a0.62,0.62 0 0 0 -0.22,-0.32a0.43,0.43 0 0 0 -0.29,-0.07a0.87,0.87 0 0 0 -0.32,0.13a1.41,1.41 0 0 0 -0.32,0.24a1.79,1.79 0 0 0 -0.29,0.4a2.19,2.19 0 0 0 -0.22,0.58a4,4 0 0 0 -0.12,0.78c0,0.08 0,0.17 0,0.28l0,0.71c0,0.11 0,0.2 0,0.26a2.36,2.36 0 0 0 0.12,0.65a0.61,0.61 0 0 0 0.22,0.32a0.37,0.37 0 0 0 0.29,0.06a0.9,0.9 0 0 0 0.32,-0.12a1.67,1.67 0 0 0 0.32,-0.24a2.17,2.17 0 0 0 0.29,-0.4a2.6,2.6 0 0 0 0.22,-0.58a3.57,3.57 0 0 0 0.11,-0.78a2.18,2.18 0 0 0 0,-0.28l0,-0.7a2.1,2.1 0 0 0 0,-0.27z" fill="#fafafa" id="svg_45"/>
    <path d="m282.68,285.9a1.42,1.42 0 0 0 0.34,-0.29a2.45,2.45 0 0 0 0.31,-0.46a3.08,3.08 0 0 0 0.23,-0.63a3,3 0 0 0 0.09,-0.75l0,-0.51c0,0.1 -0.1,0.22 -0.17,0.36a3,3 0 0 1 -0.24,0.42a4,4 0 0 1 -0.34,0.4a1.76,1.76 0 0 1 -0.43,0.33a0.92,0.92 0 0 1 -0.71,0.14a1,1 0 0 1 -0.54,-0.41a2.72,2.72 0 0 1 -0.35,-0.84a5.75,5.75 0 0 1 -0.14,-1.15c0,-0.13 0,-0.29 0,-0.48s0,-0.35 0,-0.49a8.45,8.45 0 0 1 0.14,-1.31a7.89,7.89 0 0 1 0.35,-1.25a5,5 0 0 1 0.54,-1a2.28,2.28 0 0 1 0.71,-0.68a1.41,1.41 0 0 1 0.43,-0.17a0.93,0.93 0 0 1 0.34,0a0.62,0.62 0 0 1 0.24,0.13a0.91,0.91 0 0 1 0.17,0.17l0,-0.32a0.8,0.8 0 0 1 0.06,-0.3a0.38,0.38 0 0 1 0.15,-0.19l0.59,-0.35a0.11,0.11 0 0 1 0.15,0a0.37,0.37 0 0 1 0.07,0.23l0,6.5a6.86,6.86 0 0 1 -0.53,2.84a3.63,3.63 0 0 1 -1.46,1.7a1.54,1.54 0 0 1 -0.74,0.23a1,1 0 0 1 -0.59,-0.15a1.35,1.35 0 0 1 -0.4,-0.48a2,2 0 0 1 -0.16,-0.72a0.54,0.54 0 0 1 0.06,-0.3a0.36,0.36 0 0 1 0.15,-0.2l0.53,-0.3a0.13,0.13 0 0 1 0.19,0a1,1 0 0 1 0.13,0.17a0.47,0.47 0 0 0 0.28,0.22c0.12,0.09 0.3,-0.01 0.55,-0.11zm-0.94,-4.85q0,0.4 0,0.78a1.7,1.7 0 0 0 0.32,1.12a0.49,0.49 0 0 0 0.64,0a1.72,1.72 0 0 0 0.65,-0.78a3.62,3.62 0 0 0 0.3,-1.32c0,-0.15 0,-0.33 0,-0.54s0,-0.39 0,-0.52a1.53,1.53 0 0 0 -0.3,-1a0.48,0.48 0 0 0 -0.65,0a1.73,1.73 0 0 0 -0.64,0.77a3.83,3.83 0 0 0 -0.32,1.49z" fill="#fafafa" id="svg_46"/>
    <path d="m287,272.17a0.11,0.11 0 0 1 0.14,0a0.32,0.32 0 0 1 0.07,0.23l0,1.09a0.66,0.66 0 0 1 -0.07,0.3a0.43,0.43 0 0 1 -0.14,0.19l-0.67,0.39a0.1,0.1 0 0 1 -0.15,0a0.29,0.29 0 0 1 -0.07,-0.22l0,-1.09a0.66,0.66 0 0 1 0.07,-0.3a0.38,0.38 0 0 1 0.15,-0.19l0.67,-0.4zm0.17,9.39a0.72,0.72 0 0 1 -0.06,0.29a0.49,0.49 0 0 1 -0.15,0.2l-0.6,0.34a0.09,0.09 0 0 1 -0.14,0a0.32,0.32 0 0 1 -0.07,-0.23l0,-6.47a0.66,0.66 0 0 1 0.07,-0.3a0.47,0.47 0 0 1 0.14,-0.2l0.6,-0.34a0.11,0.11 0 0 1 0.15,0a0.34,0.34 0 0 1 0.06,0.22l0,6.49z" fill="#fafafa" id="svg_47"/>
    <path d="m292.43,278.51a0.8,0.8 0 0 1 -0.06,0.3a0.38,0.38 0 0 1 -0.15,0.19l-0.6,0.35a0.1,0.1 0 0 1 -0.14,0a0.32,0.32 0 0 1 -0.07,-0.23l0,-3.52a2.45,2.45 0 0 0 -0.22,-1.21c-0.14,-0.25 -0.36,-0.29 -0.67,-0.11a1.64,1.64 0 0 0 -0.65,0.87a4.2,4.2 0 0 0 -0.24,1.47l0,3.53a0.8,0.8 0 0 1 -0.06,0.3a0.36,0.36 0 0 1 -0.15,0.2l-0.59,0.34a0.1,0.1 0 0 1 -0.15,0a0.32,0.32 0 0 1 -0.06,-0.22l0,-6.47a0.73,0.73 0 0 1 0.06,-0.3a0.36,0.36 0 0 1 0.15,-0.2l0.59,-0.34a0.1,0.1 0 0 1 0.15,0a0.37,0.37 0 0 1 0.06,0.23l0,0.31a5.15,5.15 0 0 1 0.48,-0.87a1.88,1.88 0 0 1 0.65,-0.61a1.09,1.09 0 0 1 0.79,-0.2a0.81,0.81 0 0 1 0.52,0.41a2.54,2.54 0 0 1 0.28,0.87a9,9 0 0 1 0.08,1.2l0,3.71z" fill="#fafafa" id="svg_48"/>
    <path d="m342.87,249.4l-9.71,5.6l1.51,-13.62c-1.17,-0.62 -1.91,-2.13 -1.91,-4.3c0,-3.87 2.36,-8.36 5.26,-10s5.25,0.1 5.25,4a13.26,13.26 0 0 1 -1.9,6.5l1.5,11.82z" fill="#455a64" id="svg_49"/>
    <polygon fill="#37474f" id="svg_50" points="342.8800048828125,249.39999389648438 334.3299865722656,244.47000122070312 333.1600036621094,255.00999450683594 342.8800048828125,249.39999389648438 "/>
    <path d="m338,227.05a11.45,11.45 0 0 0 -4.48,5.95l7.83,4.52l0,0a13.26,13.26 0 0 0 1.9,-6.5c0.02,-3.87 -2.33,-5.64 -5.25,-3.97z" fill="#37474f" id="svg_51"/>
    <path d="m290.8,181.7c-3.33,-1.92 -7.92,-1.65 -13,1.28c-10.14,5.86 -18.36,20.09 -18.36,31.8c0,5.88 2.08,10 5.42,11.9l6.47,3.76c3.32,1.92 7.91,1.64 13,-1.29c10.14,-5.85 18.36,-20.09 18.36,-31.8c0,-5.85 -2.06,-10 -5.38,-11.87" fill="#B441C8" id="svg_52"/>
    <path d="m284.32,186.75c-10.14,5.86 -18.36,20.1 -18.36,31.8s8.22,16.46 18.36,10.6s18.37,-20.09 18.36,-31.8s-8.23,-16.45 -18.36,-10.6z" fill="#B441C8" id="svg_53"/>
    <path d="m294.45,212.73l0,1.34a29.53,29.53 0 0 1 -10.13,10.62c-3.95,2.27 -7.52,2.52 -10.14,1.07l0,-2.76a18,18 0 0 1 8.26,-14.31l2.67,-1.54c2.36,-1.36 4.66,-1.54 6.46,-0.49s2.88,3.26 2.88,6.07z" fill="#B441C8" id="svg_54"/>
    <path d="m290.8,181.7l6.5,3.78c-3.32,-1.93 -7.91,-1.66 -13,1.27c-6.64,3.84 -12.46,11.27 -15.68,19.23l-6.51,-3.77c3.23,-8 9,-15.39 15.68,-19.23c5.1,-2.92 9.69,-3.2 13.01,-1.28z" fill="#fff" id="svg_55" opacity="0.4"/>
    <path d="m271.1,230.29l-6.23,-3.61c-3.34,-1.9 -5.42,-6 -5.42,-11.9l6.51,3.78c0.04,5.7 1.96,9.76 5.14,11.73z" id="svg_56" opacity="0.2"/>
    <path d="m262.13,202.21l6.51,3.77a34.11,34.11 0 0 0 -2.64,12.57l0,0l-6.51,-3.78a34.23,34.23 0 0 1 2.64,-12.56z" id="svg_57" opacity="0.1"/>
    <path d="m282,206.52a3.49,3.49 0 0 1 -1.77,-0.46a4.33,4.33 0 0 1 -1.91,-4a11.42,11.42 0 0 1 5.24,-9.08l0,0a3.92,3.92 0 0 1 6.32,3.66a11.44,11.44 0 0 1 -5.24,9.08a5.29,5.29 0 0 1 -2.64,0.8z" fill="#fff" id="svg_58"/>
    <path d="m291.57,206.65c-1.8,-1.05 -4.1,-0.87 -6.46,0.49l-2.67,1.54a18,18 0 0 0 -8.26,14.32l0,2.77c2.62,1.45 6.19,1.2 10.14,-1.07a29.53,29.53 0 0 0 10.13,-10.62l0,-1.34c0,-2.82 -1.04,-5.03 -2.88,-6.09z" fill="#fff" id="svg_59"/>
   </g>
  </g>
 </g>
</svg>